REM DIRINDEX 1\2,1\3,1\4,1\5
REM DIRNAME cjc005,folder01,folder02,folder03,folder04
TITLE ""
FILE "P1Q_t_1382-1391.mp3" MP3
  TRACK 01 AUDIO
    TITLE "3:cjc005_5053"
    INDEX 01 00:00:00
  TRACK 02 AUDIO
    TITLE "0:"
    INDEX 01 00:01:15
  TRACK 03 AUDIO
    TITLE "4:cjc005_5054"
    INDEX 01 00:01:34
  TRACK 04 AUDIO
    TITLE "0:"
    INDEX 01 00:02:24
  TRACK 05 AUDIO
    TITLE "5:cjc005_5055"
    INDEX 01 00:02:51
  TRACK 06 AUDIO
    TITLE "0:"
    INDEX 01 00:06:71
  TRACK 07 AUDIO
    TITLE "3:cjc005_5056"
    INDEX 01 00:07:52
  TRACK 08 AUDIO
    TITLE "0:"
    INDEX 01 00:08:73
  TRACK 09 AUDIO
    TITLE "4:cjc005_5057"
    INDEX 01 00:09:22
  TRACK 10 AUDIO
    TITLE "0:"
    INDEX 01 00:10:35
  TRACK 11 AUDIO
    TITLE "5:cjc005_5058"
    INDEX 01 00:10:63
  TRACK 12 AUDIO
    TITLE "0:"
    INDEX 01 00:14:51
  TRACK 13 AUDIO
    TITLE "3:cjc005_5059"
    INDEX 01 00:15:23
  TRACK 14 AUDIO
    TITLE "0:"
    INDEX 01 00:16:26
  TRACK 15 AUDIO
    TITLE "4:cjc005_5060"
    INDEX 01 00:16:59
  TRACK 16 AUDIO
    TITLE "0:"
    INDEX 01 00:17:74
  TRACK 17 AUDIO
    TITLE "5:cjc005_5061"
    INDEX 01 00:18:25
  TRACK 18 AUDIO
    TITLE "0:"
    INDEX 01 00:22:09
  TRACK 19 AUDIO
    TITLE "3:cjc005_5062"
    INDEX 01 00:22:58
  TRACK 20 AUDIO
    TITLE "0:"
    INDEX 01 00:23:69
  TRACK 21 AUDIO
    TITLE "4:cjc005_5063"
    INDEX 01 00:24:22
  TRACK 22 AUDIO
    TITLE "0:"
    INDEX 01 00:25:29
  TRACK 23 AUDIO
    TITLE "5:cjc005_5064"
    INDEX 01 00:25:54
  TRACK 24 AUDIO
    TITLE "0:"
    INDEX 01 00:28:64
  TRACK 25 AUDIO
    TITLE "3:cjc005_5065"
    INDEX 01 00:29:40
  TRACK 26 AUDIO
    TITLE "0:"
    INDEX 01 00:30:54
  TRACK 27 AUDIO
    TITLE "4:cjc005_5066"
    INDEX 01 00:31:00
  TRACK 28 AUDIO
    TITLE "0:"
    INDEX 01 00:32:03
  TRACK 29 AUDIO
    TITLE "5:cjc005_5067"
    INDEX 01 00:32:25
  TRACK 30 AUDIO
    TITLE "0:"
    INDEX 01 00:35:74
  TRACK 31 AUDIO
    TITLE "3:cjc005_5068"
    INDEX 01 00:36:44
  TRACK 32 AUDIO
    TITLE "0:"
    INDEX 01 00:37:67
  TRACK 33 AUDIO
    TITLE "4:cjc005_5069"
    INDEX 01 00:38:16
  TRACK 34 AUDIO
    TITLE "0:"
    INDEX 01 00:39:60
  TRACK 35 AUDIO
    TITLE "5:cjc005_5070"
    INDEX 01 00:40:05
  TRACK 36 AUDIO
    TITLE "0:"
    INDEX 01 00:43:29
  TRACK 37 AUDIO
    TITLE "3:cjc005_5071"
    INDEX 01 00:44:14
  TRACK 38 AUDIO
    TITLE "0:"
    INDEX 01 00:45:18
  TRACK 39 AUDIO
    TITLE "4:cjc005_5072"
    INDEX 01 00:45:45
  TRACK 40 AUDIO
    TITLE "0:"
    INDEX 01 00:46:60
  TRACK 41 AUDIO
    TITLE "5:cjc005_5073"
    INDEX 01 00:47:05
  TRACK 42 AUDIO
    TITLE "0:"
    INDEX 01 00:50:60
  TRACK 43 AUDIO
    TITLE "3:cjc005_5074"
    INDEX 01 00:51:36
  TRACK 44 AUDIO
    TITLE "0:"
    INDEX 01 00:52:57
  TRACK 45 AUDIO
    TITLE "4:cjc005_5075"
    INDEX 01 00:53:11
  TRACK 46 AUDIO
    TITLE "0:"
    INDEX 01 00:54:23
  TRACK 47 AUDIO
    TITLE "5:cjc005_5076"
    INDEX 01 00:54:48
  TRACK 48 AUDIO
    TITLE "0:"
    INDEX 01 00:57:56
  TRACK 49 AUDIO
    TITLE "3:cjc005_5077"
    INDEX 01 00:58:28
  TRACK 50 AUDIO
    TITLE "0:"
    INDEX 01 00:59:49
  TRACK 51 AUDIO
    TITLE "4:cjc005_5078"
    INDEX 01 01:00:06
  TRACK 52 AUDIO
    TITLE "0:"
    INDEX 01 01:01:11
  TRACK 53 AUDIO
    TITLE "5:cjc005_5079"
    INDEX 01 01:01:36
  TRACK 54 AUDIO
    TITLE "0:"
    INDEX 01 01:05:42
  TRACK 55 AUDIO
    TITLE "3:cjc005_5080"
    INDEX 01 01:06:26
  TRACK 56 AUDIO
    TITLE "0:"
    INDEX 01 01:07:27
  TRACK 57 AUDIO
    TITLE "4:cjc005_5081"
    INDEX 01 01:07:51
  TRACK 58 AUDIO
    TITLE "0:"
    INDEX 01 01:09:10
  TRACK 59 AUDIO
    TITLE "5:cjc005_5082"
    INDEX 01 01:09:30
  TRACK 60 AUDIO
    TITLE "0:"
    INDEX 01 01:12:60
